<mxfile host="app.diagrams.net" modified="2024-02-28T17:13:16.409Z" agent="Mozilla/5.0 (Linux; Android 10; K) AppleWebKit/537.36 (KHTML, like Gecko) Chrome/122.0.0.0 Mobile Safari/537.36" version="23.1.7" etag="lGCIiibAqAiotBJXmwy9" type="github">
  <diagram name="PÃ¡gina-1" id="0eXmcFSsCx4uCjP5R7A8">
    <mxGraphModel>
      <root>
        <mxCell id="0" />
        <mxCell id="1" parent="0" />
      </root>
    </mxGraphModel>
  </diagram>
</mxfile>
